<svg xmlns="http://www.w3.org/2000/svg" viewBox="0 0 64 64" fill="none">
  <rect width="64" height="64" rx="12" fill="#15151E"/>
  <!-- Checkered flag pattern -->
  <g transform="translate(8, 8)">
    <!-- Flag pole -->
    <rect x="4" y="4" width="3" height="44" rx="1.5" fill="#888"/>
    <!-- Flag body -->
    <path d="M7 4 C12 2, 20 8, 28 4 C36 0, 42 6, 46 4 L46 28 C42 30, 36 24, 28 28 C20 32, 12 26, 7 28 Z" fill="#E10600"/>
    <!-- Checkered squares on flag -->
    <rect x="10" y="8" width="6" height="6" fill="#fff" opacity="0.9"/>
    <rect x="22" y="8" width="6" height="6" fill="#fff" opacity="0.9"/>
    <rect x="34" y="8" width="6" height="6" fill="#fff" opacity="0.9"/>
    <rect x="16" y="14" width="6" height="6" fill="#fff" opacity="0.9"/>
    <rect x="28" y="14" width="6" height="6" fill="#fff" opacity="0.9"/>
    <rect x="10" y="20" width="6" height="6" fill="#fff" opacity="0.9"/>
    <rect x="22" y="20" width="6" height="6" fill="#fff" opacity="0.9"/>
    <rect x="34" y="20" width="6" height="6" fill="#fff" opacity="0.9"/>
  </g>
</svg>
